#!OML:ASF X:\für Bonn\!DataBase\2005_08_11_Bastian_Final\c3d\Bastian.ASF
:FULLY-SPECIFIED
:DEGREES
32
root 1.76688 17.1504 -2.40949 583.637 81.3084 -479.354
lowerback 14.7012 -2.18495 9.47425
upperback 11.7917 -0.936777 4.32269
thorax 4.31536 0.405758 -0.573458
lowerneck 3.99742 -12.4174 -5.98673
upperneck 9.14731 -17.6609 16.5735
head 4.0995 -8.35624 5.37531
rclavicle -2.28602e-014 1.03368e-014
rhumerus -22.3955 3.6139 -79.0259
rradius 27.0304
rwrist -0.207322
rhand -22.2662 -2.14974
rfingers 7.12502
rthumb 4.15174 -32.089
lclavicle -2.28602e-014 1.03368e-014
lhumerus -22.5093 5.44351 90.1031
lradius 9.65144
lwrist 2.2764
lhand -9.1325 -3.26797
lfingers 7.12502
lthumb 16.8189 26.0236
rfemur -0.899882 -1.97584 28.8528
rtibia 34.9043
rfoot -10.8958 -3.19312
rtoes -7.67773
lfemur -12.209 2.7356 -11.5491
ltibia 46.1808
lfoot -3.65926 -10.9506
ltoes -21.6819
33
root 1.89075 17.1559 -2.41595 585.161 81.5404 -477.866
lowerback 14.9402 -2.11161 9.49521
upperback 11.8789 -0.799389 4.34216
thorax 4.29676 0.482177 -0.575578
lowerneck 4.34631 -12.5421 -5.88752
upperneck 8.83334 -17.791 16.6942
head 3.9653 -8.44672 5.41845
rclavicle -4.57205e-015 1.35174e-014
rhumerus -21.7288 3.95035 -78.7862
rradius 27.0375
rwrist -0.218001
rhand -22.2843 -2.04825
rfingers 7.12502
rthumb 4.13423 -31.9879
lclavicle -4.57205e-015 1.35174e-014
lhumerus -23.09 5.63418 90.0007
lradius 9.75158
lwrist 2.16575
lhand -8.92551 -3.21462
lfingers 7.12502
lthumb 17.0181 26.0599
rfemur -0.471585 -2.04079 28.7693
rtibia 34.8819
rfoot -11.2626 -2.88962
rtoes -7.20347
lfemur -12.4565 2.90925 -11.9126
ltibia 43.7768
lfoot -3.59896 -10.7616
ltoes -21.6888
34
root 2.01259 17.1584 -2.42254 586.962 81.7424 -476.117
lowerback 15.1593 -2.03913 9.5655
upperback 11.9921 -0.65982 4.35347
thorax 4.319 0.56641 -0.613458
lowerneck 4.61973 -12.6775 -5.76467
upperneck 8.50742 -17.9375 16.8751
head 3.8458 -8.54033 5.47064
rclavicle 1.23246e-014 -1.19271e-014
rhumerus -20.9974 4.25928 -78.561
rradius 27.0298
rwrist -0.186729
rhand -22.273 -1.96942
rfingers 7.12502
rthumb 4.14518 -31.9088
lclavicle 1.23246e-014 -1.19271e-014
lhumerus -23.6004 5.78641 89.8442
lradius 9.8678
lwrist 2.01545
lhand -8.77048 -3.22008
lfingers 7.12502
lthumb 17.1674 26.0415
rfemur -0.105961 -2.09591 28.7186
rtibia 34.9039
rfoot -11.5972 -2.58838
rtoes -6.54369
lfemur -12.6056 3.01873 -12.2062
ltibia 41.3993
lfoot -3.69258 -10.5409
ltoes -21.8704
35
root 2.1328 17.1562 -2.42995 588.619 81.974 -474.502
lowerback 15.3933 -1.97076 9.55752
upperback 12.1243 -0.531546 4.38127
thorax 4.35301 0.641105 -0.589396
lowerneck 4.83289 -12.8045 -5.68954
upperneck 8.1861 -18.0739 17.0277
head 3.7384 -8.62997 5.51769
rclavicle -2.20651e-014 -2.38542e-014
rhumerus -20.236 4.64424 -78.2732
rradius 27.0648
rwrist -0.162968
rhand -22.2379 -1.98382
rfingers 7.12502
rthumb 4.17907 -31.9226
lclavicle -2.20651e-014 -2.38542e-014
lhumerus -24.0891 5.99813 89.7458
lradius 10.0456
lwrist 1.87339
lhand -8.56403 -3.23411
lfingers 7.12502
lthumb 17.3661 26.0101
rfemur 0.235134 -2.11489 28.6219
rtibia 35.002
rfoot -11.9461 -2.34636
rtoes -6.12132
lfemur -12.6389 3.05769 -12.5271
ltibia 39.068
lfoot -3.78841 -10.2758
ltoes -22.1333
36
root 2.25079 17.1498 -2.43714 590.505 82.1914 -472.673
lowerback 15.6594 -1.90578 9.52886
upperback 12.2393 -0.404952 4.43436
thorax 4.35084 0.710597 -0.527795
lowerneck 5.06381 -12.9252 -5.68733
upperneck 7.86007 -18.2063 17.212
head 3.63593 -8.72098 5.58667
rclavicle -5.1684e-015 -3.97569e-015
rhumerus -19.4851 5.13279 -77.9473
rradius 27.1018
rwrist -0.158883
rhand -22.232 -2.05943
rfingers 7.12502
rthumb 4.18472 -31.9981
lclavicle -5.1684e-015 -3.97569e-015
lhumerus -24.5715 5.59262 89.9539
lradius 10.3251
lwrist 2.31219
lhand -8.44029 -2.93868
lfingers 7.12502
lthumb 17.4852 26.295
rfemur 0.491951 -2.10098 28.5396
rtibia 35.2119
rfoot -12.3027 -2.09937
rtoes -5.54494
lfemur -12.6749 3.05301 -12.8106
ltibia 36.8462
lfoot -3.83239 -9.97681
ltoes -22.6486
37
root 2.36628 17.1366 -2.44511 592.565 82.3897 -470.644
lowerback 15.9862 -1.8579 9.49703
upperback 12.3595 -0.290533 4.50839
thorax 4.32177 0.773313 -0.440989
lowerneck 5.29407 -13.0404 -5.68614
upperneck 7.48473 -18.3233 17.3596
head 3.51407 -8.80958 5.64723
rclavicle 2.06736e-014 6.2816e-014
rhumerus -18.745 5.7747 -77.5917
rradius 27.179
rwrist -0.226327
rhand -22.2792 -2.12974
rfingers 7.12502
rthumb 4.13914 -32.0693
lclavicle 2.06736e-014 6.2816e-014
lhumerus -25.0197 5.33552 90.1788
lradius 10.6105
lwrist 2.54593
lhand -8.28745 -2.59712
lfingers 7.12502
lthumb 17.6322 26.6234
rfemur 0.715094 -2.07003 28.481
rtibia 35.5184
rfoot -12.6594 -1.90009
rtoes -5.01402
lfemur -12.6703 3.0109 -13.0503
ltibia 34.7738
lfoot -3.71883 -9.61839
ltoes -22.9339
